<?xml version="1.0" encoding="UTF-8" standalone="no"?>
<svg xmlns="http://www.w3.org/2000/svg" width="800" height="800" viewBox="0 0 800 800">
  <title>Skibidi 2D Vector Logo</title>
  <defs>
    <linearGradient id="purpleGradient" x1="0%" y1="0%" x2="100%" y2="100%">
      <stop offset="0%" style="stop-color:#7b4bff;stop-opacity:1" />
      <stop offset="100%" style="stop-color:#5e35b1;stop-opacity:1" />
    </linearGradient>
    <linearGradient id="silverGradient" x1="0%" y1="0%" x2="100%" y2="100%">
      <stop offset="0%" style="stop-color:#e0e0e0;stop-opacity:1" />
      <stop offset="100%" style="stop-color:#bdbdbd;stop-opacity:1" />
    </linearGradient>
    <linearGradient id="goldGradient" x1="0%" y1="0%" x2="100%" y2="100%">
      <stop offset="0%" style="stop-color:#ffd54f;stop-opacity:1" />
      <stop offset="100%" style="stop-color:#ffb300;stop-opacity:1" />
    </linearGradient>
  </defs>
  
  <!-- Background rounded square -->
  <rect x="100" y="100" width="600" height="600" rx="120" ry="120" fill="url(#purpleGradient)" />
  
  <!-- Letter S -->
  <path d="M300,200 C250,200 200,230 200,300 C200,370 250,400 300,400 L500,400 C550,400 600,430 600,500 C600,570 550,600 500,600 L200,600" 
        stroke="url(#silverGradient)" stroke-width="60" fill="none" stroke-linecap="round" />
  
  <!-- Lightning bolt -->
  <path d="M350,250 L250,450 L350,450 L300,550" 
        stroke="url(#goldGradient)" stroke-width="40" fill="none" stroke-linecap="round" stroke-linejoin="round" />
  
  <!-- Bitcoin symbol -->
  <path d="M520,320 L520,350 L540,350 C550,350 560,340 560,330 C560,320 550,310 540,310 L520,310 L520,320 Z
           M520,360 L520,390 L545,390 C555,390 565,380 565,370 C565,360 555,350 545,350 L520,350 L520,360 Z
           M530,300 L540,300 C560,300 575,315 575,330 C575,340 570,350 560,355 C570,360 580,370 580,380 C580,395 565,410 545,410 L510,410 L510,300 L530,300 Z" 
        fill="#7b4bff" />
</svg>
